<svg xmlns="http://www.w3.org/2000/svg" xmlns:xlink="http://www.w3.org/1999/xlink" width="150" zoomAndPan="magnify" viewBox="0 0 112.5 30.000001" height="40" preserveAspectRatio="xMidYMid meet" version="1.0"><defs><g/></defs><g fill="#0866fe" fill-opacity="1"><g transform="translate(2.899444, 20.74797)"><g><path d="M 0.703125 0.28125 C 0.617188 0.164062 0.554688 0.046875 0.515625 -0.078125 C 0.484375 -0.210938 0.46875 -0.351562 0.46875 -0.5 L 0.46875 -0.546875 C 0.46875 -0.546875 0.46875 -0.5625 0.46875 -0.59375 C 0.5 -1.050781 0.65625 -1.359375 0.9375 -1.515625 C 1.125 -1.628906 1.398438 -1.6875 1.765625 -1.6875 C 2.128906 -1.6875 2.375 -1.734375 2.5 -1.828125 C 2.625 -1.910156 2.691406 -2.015625 2.703125 -2.140625 C 2.753906 -2.359375 2.789062 -2.660156 2.8125 -3.046875 L 2.8125 -13.375 C 2.789062 -13.757812 2.753906 -14.066406 2.703125 -14.296875 C 2.703125 -14.328125 2.691406 -14.359375 2.671875 -14.390625 C 2.660156 -14.429688 2.640625 -14.46875 2.609375 -14.5 C 2.585938 -14.53125 2.550781 -14.554688 2.5 -14.578125 C 2.375 -14.679688 2.128906 -14.734375 1.765625 -14.734375 L 1.609375 -14.734375 C 1.546875 -14.734375 1.488281 -14.738281 1.4375 -14.75 C 1.382812 -14.757812 1.316406 -14.765625 1.234375 -14.765625 C 1.160156 -14.773438 1.085938 -14.796875 1.015625 -14.828125 C 0.941406 -14.867188 0.878906 -14.925781 0.828125 -15 C 0.796875 -15.007812 0.757812 -15.03125 0.71875 -15.0625 C 0.6875 -15.101562 0.660156 -15.132812 0.640625 -15.15625 C 0.628906 -15.1875 0.613281 -15.21875 0.59375 -15.25 C 0.582031 -15.289062 0.570312 -15.320312 0.5625 -15.34375 C 0.550781 -15.375 0.539062 -15.410156 0.53125 -15.453125 C 0.519531 -15.492188 0.507812 -15.519531 0.5 -15.53125 C 0.5 -15.550781 0.5 -15.582031 0.5 -15.625 C 0.5 -15.675781 0.492188 -15.707031 0.484375 -15.71875 C 0.472656 -15.738281 0.46875 -15.765625 0.46875 -15.796875 C 0.46875 -15.835938 0.46875 -15.863281 0.46875 -15.875 L 0.46875 -15.9375 C 0.488281 -16.226562 0.566406 -16.488281 0.703125 -16.71875 C 0.785156 -16.851562 0.90625 -16.957031 1.0625 -17.03125 C 1.21875 -17.113281 1.382812 -17.15625 1.5625 -17.15625 L 1.59375 -17.15625 C 2.738281 -17.101562 3.757812 -17.078125 4.65625 -17.078125 L 8.71875 -17.078125 C 10.488281 -17.078125 12.101562 -16.722656 13.5625 -16.015625 C 15.019531 -15.285156 16.175781 -14.242188 17.03125 -12.890625 C 17.894531 -11.535156 18.328125 -9.945312 18.328125 -8.125 C 18.328125 -6.21875 17.84375 -4.59375 16.875 -3.25 C 16.382812 -2.59375 15.820312 -2.015625 15.1875 -1.515625 C 14.550781 -1.023438 13.851562 -0.613281 13.09375 -0.28125 C 11.582031 0.34375 9.96875 0.65625 8.25 0.65625 L 4.65625 0.65625 C 4.5 0.65625 4.34375 0.65625 4.1875 0.65625 C 4.03125 0.65625 3.867188 0.65625 3.703125 0.65625 C 3.546875 0.65625 3.382812 0.65625 3.21875 0.65625 C 3.050781 0.664062 2.875 0.675781 2.6875 0.6875 C 2.507812 0.695312 2.328125 0.703125 2.140625 0.703125 C 1.960938 0.703125 1.78125 0.710938 1.59375 0.734375 L 1.5625 0.734375 C 1.195312 0.734375 0.910156 0.582031 0.703125 0.28125 Z M 12.59375 -3.25 C 13.445312 -4.382812 13.875 -6.007812 13.875 -8.125 C 13.875 -9.457031 13.640625 -10.632812 13.171875 -11.65625 C 12.929688 -12.164062 12.644531 -12.613281 12.3125 -13 C 11.976562 -13.394531 11.597656 -13.726562 11.171875 -14 C 10.316406 -14.5625 9.28125 -14.84375 8.0625 -14.84375 L 6.6875 -14.8125 L 6.6875 -2.734375 C 6.6875 -2.296875 6.789062 -2.019531 7 -1.90625 C 7.289062 -1.707031 7.835938 -1.609375 8.640625 -1.609375 C 10.460938 -1.609375 11.78125 -2.15625 12.59375 -3.25 Z M 12.59375 -3.25 "/></g></g></g><g fill="#0866fe" fill-opacity="1"><g transform="translate(21.847061, 20.74797)"><g><path d="M 16.015625 5.546875 C 15.398438 5.335938 14.859375 5.066406 14.390625 4.734375 C 13.960938 4.441406 13.410156 4.023438 12.734375 3.484375 C 12.222656 3.066406 11.769531 2.710938 11.375 2.421875 C 11.1875 2.285156 10.988281 2.15625 10.78125 2.03125 C 10.570312 1.90625 10.363281 1.785156 10.15625 1.671875 C 10.050781 1.617188 9.945312 1.566406 9.84375 1.515625 C 9.738281 1.472656 9.625 1.429688 9.5 1.390625 C 9.375 1.347656 9.242188 1.304688 9.109375 1.265625 C 8.984375 1.234375 8.851562 1.195312 8.71875 1.15625 C 8.59375 1.113281 8.453125 1.078125 8.296875 1.046875 C 6.390625 0.609375 4.988281 0.0390625 4.09375 -0.65625 C 2.976562 -1.519531 2.117188 -2.59375 1.515625 -3.875 C 0.898438 -5.164062 0.59375 -6.535156 0.59375 -7.984375 C 0.59375 -9.929688 1.035156 -11.632812 1.921875 -13.09375 C 2.804688 -14.550781 3.9375 -15.664062 5.3125 -16.4375 C 6.695312 -17.207031 8.109375 -17.59375 9.546875 -17.59375 C 11.335938 -17.59375 12.925781 -17.171875 14.3125 -16.328125 C 14.78125 -16.046875 15.207031 -15.726562 15.59375 -15.375 C 15.988281 -15.03125 16.34375 -14.65625 16.65625 -14.25 C 16.96875 -13.84375 17.253906 -13.40625 17.515625 -12.9375 C 18.242188 -11.550781 18.609375 -10.054688 18.609375 -8.453125 C 18.597656 -6.378906 18.070312 -4.5625 17.03125 -3 C 16.800781 -2.664062 16.554688 -2.347656 16.296875 -2.046875 C 16.035156 -1.753906 15.757812 -1.484375 15.46875 -1.234375 C 15.1875 -0.984375 14.882812 -0.75 14.5625 -0.53125 C 14.238281 -0.3125 13.90625 -0.117188 13.5625 0.046875 C 13.769531 0.171875 14 0.3125 14.25 0.46875 C 14.5 0.625 14.765625 0.796875 15.046875 0.984375 C 15.328125 1.179688 15.625 1.390625 15.9375 1.609375 C 16.195312 1.804688 16.453125 1.984375 16.703125 2.140625 C 16.953125 2.304688 17.175781 2.453125 17.375 2.578125 C 17.570312 2.703125 17.75 2.816406 17.90625 2.921875 C 18.007812 2.972656 18.113281 3.019531 18.21875 3.0625 C 18.320312 3.101562 18.421875 3.132812 18.515625 3.15625 C 18.617188 3.1875 18.71875 3.207031 18.8125 3.21875 C 18.90625 3.238281 19.003906 3.25 19.109375 3.25 C 19.160156 3.238281 19.210938 3.222656 19.265625 3.203125 C 19.296875 3.203125 19.320312 3.191406 19.34375 3.171875 C 19.363281 3.160156 19.375 3.140625 19.375 3.109375 C 19.382812 3.085938 19.390625 3.050781 19.390625 3 C 19.390625 2.875 19.363281 2.75 19.3125 2.625 C 19.257812 2.507812 19.179688 2.390625 19.078125 2.265625 C 18.890625 2.054688 18.628906 1.941406 18.296875 1.921875 L 17.78125 1.90625 L 17.671875 1.40625 C 17.609375 0.882812 17.773438 0.414062 18.171875 0 C 18.566406 -0.382812 19.113281 -0.578125 19.8125 -0.578125 C 20.132812 -0.578125 20.488281 -0.472656 20.875 -0.265625 C 21.257812 -0.0546875 21.585938 0.25 21.859375 0.65625 C 22.160156 1.070312 22.3125 1.570312 22.3125 2.15625 C 22.3125 2.488281 22.253906 2.816406 22.140625 3.140625 C 22.023438 3.460938 21.851562 3.757812 21.625 4.03125 C 21.3125 4.445312 20.921875 4.804688 20.453125 5.109375 C 20.398438 5.140625 20.335938 5.175781 20.265625 5.21875 C 20.203125 5.257812 20.132812 5.300781 20.0625 5.34375 C 19.75 5.5 19.429688 5.617188 19.109375 5.703125 C 18.796875 5.785156 18.46875 5.835938 18.125 5.859375 C 17.34375 5.859375 16.640625 5.753906 16.015625 5.546875 Z M 12.046875 -2.109375 C 12.765625 -2.753906 13.304688 -3.625 13.671875 -4.71875 C 14.035156 -5.84375 14.21875 -7.085938 14.21875 -8.453125 C 14.21875 -9.722656 14.023438 -10.878906 13.640625 -11.921875 C 13.296875 -12.929688 12.765625 -13.726562 12.046875 -14.3125 C 11.359375 -14.882812 10.519531 -15.171875 9.53125 -15.171875 C 9.269531 -15.171875 9.023438 -15.15625 8.796875 -15.125 C 8.566406 -15.09375 8.347656 -15.039062 8.140625 -14.96875 C 7.929688 -14.894531 7.734375 -14.804688 7.546875 -14.703125 C 7.367188 -14.597656 7.195312 -14.476562 7.03125 -14.34375 C 6.875 -14.207031 6.722656 -14.050781 6.578125 -13.875 C 6.441406 -13.695312 6.316406 -13.503906 6.203125 -13.296875 C 5.785156 -12.617188 5.472656 -11.847656 5.265625 -10.984375 C 5.066406 -10.117188 4.96875 -9.144531 4.96875 -8.0625 C 4.96875 -6.78125 5.148438 -5.601562 5.515625 -4.53125 C 5.878906 -3.488281 6.398438 -2.664062 7.078125 -2.0625 C 7.734375 -1.488281 8.550781 -1.203125 9.53125 -1.203125 C 9.789062 -1.203125 10.035156 -1.21875 10.265625 -1.25 C 10.503906 -1.28125 10.726562 -1.332031 10.9375 -1.40625 C 11.144531 -1.488281 11.335938 -1.585938 11.515625 -1.703125 C 11.703125 -1.816406 11.878906 -1.953125 12.046875 -2.109375 Z M 12.046875 -2.109375 "/></g></g></g><g fill="#0866fe" fill-opacity="1"><g transform="translate(40.768652, 20.74797)"><g><path d="M 5.625 0.390625 C 4.582031 -0.128906 3.785156 -0.820312 3.234375 -1.6875 C 2.671875 -2.5625 2.390625 -3.5 2.390625 -4.5 L 2.390625 -13.375 C 2.378906 -13.757812 2.347656 -14.066406 2.296875 -14.296875 C 2.273438 -14.347656 2.25 -14.398438 2.21875 -14.453125 C 2.195312 -14.503906 2.148438 -14.546875 2.078125 -14.578125 C 1.960938 -14.679688 1.722656 -14.734375 1.359375 -14.734375 L 1.203125 -14.734375 C 0.867188 -14.734375 0.609375 -14.820312 0.421875 -15 C 0.367188 -15.03125 0.328125 -15.054688 0.296875 -15.078125 C 0.273438 -15.109375 0.25 -15.144531 0.21875 -15.1875 C 0.195312 -15.226562 0.175781 -15.257812 0.15625 -15.28125 C 0.132812 -15.3125 0.117188 -15.347656 0.109375 -15.390625 C 0.109375 -15.441406 0.101562 -15.476562 0.09375 -15.5 C 0.0820312 -15.53125 0.078125 -15.566406 0.078125 -15.609375 C 0.078125 -15.648438 0.0703125 -15.675781 0.0625 -15.6875 C 0.0507812 -15.707031 0.046875 -15.742188 0.046875 -15.796875 C 0.046875 -15.847656 0.046875 -15.875 0.046875 -15.875 L 0.046875 -15.9375 C 0.046875 -16 0.0507812 -16.066406 0.0625 -16.140625 C 0.0703125 -16.210938 0.0820312 -16.273438 0.09375 -16.328125 C 0.113281 -16.390625 0.140625 -16.453125 0.171875 -16.515625 C 0.210938 -16.578125 0.25 -16.644531 0.28125 -16.71875 C 0.351562 -16.800781 0.4375 -16.875 0.53125 -16.9375 C 0.625 -17.007812 0.726562 -17.0625 0.84375 -17.09375 C 0.957031 -17.132812 1.066406 -17.15625 1.171875 -17.15625 L 1.203125 -17.15625 C 2.304688 -17.101562 3.320312 -17.078125 4.25 -17.078125 C 5.289062 -17.078125 6.363281 -17.101562 7.46875 -17.15625 L 7.5 -17.15625 C 7.601562 -17.15625 7.707031 -17.132812 7.8125 -17.09375 C 7.925781 -17.0625 8.03125 -17.007812 8.125 -16.9375 C 8.226562 -16.875 8.3125 -16.800781 8.375 -16.71875 C 8.46875 -16.59375 8.53125 -16.460938 8.5625 -16.328125 C 8.59375 -16.203125 8.609375 -16.070312 8.609375 -15.9375 L 8.609375 -15.875 C 8.597656 -15.738281 8.585938 -15.640625 8.578125 -15.578125 C 8.566406 -15.515625 8.53125 -15.414062 8.46875 -15.28125 C 8.40625 -15.15625 8.320312 -15.050781 8.21875 -14.96875 C 8.03125 -14.8125 7.769531 -14.734375 7.4375 -14.734375 C 7.019531 -14.734375 6.734375 -14.679688 6.578125 -14.578125 C 6.515625 -14.523438 6.460938 -14.476562 6.421875 -14.4375 C 6.390625 -14.40625 6.375 -14.363281 6.375 -14.3125 C 6.320312 -14.101562 6.289062 -13.789062 6.28125 -13.375 L 6.28125 -5.265625 C 6.28125 -4.203125 6.519531 -3.316406 7 -2.609375 C 7.4375 -1.984375 8.359375 -1.671875 9.765625 -1.671875 C 11.171875 -1.671875 12.140625 -1.960938 12.671875 -2.546875 C 13.234375 -3.171875 13.515625 -3.953125 13.515625 -4.890625 L 13.515625 -11.734375 C 13.515625 -12.878906 13.46875 -13.679688 13.375 -14.140625 C 13.363281 -14.253906 13.34375 -14.347656 13.3125 -14.421875 C 13.289062 -14.503906 13.257812 -14.554688 13.21875 -14.578125 L 13.203125 -14.609375 C 13.046875 -14.691406 12.695312 -14.734375 12.15625 -14.734375 L 12 -14.734375 C 11.863281 -14.734375 11.734375 -14.75 11.609375 -14.78125 C 11.484375 -14.820312 11.363281 -14.882812 11.25 -14.96875 C 11.144531 -15.050781 11.0625 -15.15625 11 -15.28125 C 10.9375 -15.414062 10.898438 -15.515625 10.890625 -15.578125 C 10.878906 -15.640625 10.867188 -15.738281 10.859375 -15.875 L 10.859375 -15.9375 C 10.859375 -15.988281 10.859375 -16.035156 10.859375 -16.078125 C 10.859375 -16.117188 10.859375 -16.160156 10.859375 -16.203125 C 10.867188 -16.242188 10.882812 -16.285156 10.90625 -16.328125 C 10.925781 -16.378906 10.941406 -16.425781 10.953125 -16.46875 C 10.972656 -16.507812 10.988281 -16.550781 11 -16.59375 C 11.019531 -16.632812 11.050781 -16.675781 11.09375 -16.71875 C 11.195312 -16.851562 11.328125 -16.957031 11.484375 -17.03125 C 11.640625 -17.113281 11.800781 -17.15625 11.96875 -17.15625 L 12 -17.15625 C 12.550781 -17.125 13.070312 -17.101562 13.5625 -17.09375 C 14.050781 -17.082031 14.492188 -17.078125 14.890625 -17.078125 C 15.097656 -17.078125 15.3125 -17.078125 15.53125 -17.078125 C 15.75 -17.078125 15.976562 -17.082031 16.21875 -17.09375 C 16.457031 -17.101562 16.707031 -17.109375 16.96875 -17.109375 C 17.226562 -17.117188 17.5 -17.132812 17.78125 -17.15625 L 17.8125 -17.15625 C 18.1875 -17.15625 18.476562 -17.007812 18.6875 -16.71875 C 18.84375 -16.488281 18.921875 -16.226562 18.921875 -15.9375 L 18.921875 -15.875 C 18.890625 -15.445312 18.757812 -15.144531 18.53125 -14.96875 C 18.414062 -14.863281 18.296875 -14.796875 18.171875 -14.765625 C 18.046875 -14.742188 17.90625 -14.734375 17.75 -14.734375 C 17.144531 -14.734375 16.753906 -14.691406 16.578125 -14.609375 C 16.566406 -14.609375 16.554688 -14.601562 16.546875 -14.59375 C 16.535156 -14.582031 16.507812 -14.539062 16.46875 -14.46875 C 16.4375 -14.40625 16.414062 -14.3125 16.40625 -14.1875 C 16.363281 -14.007812 16.328125 -13.722656 16.296875 -13.328125 C 16.273438 -12.929688 16.265625 -12.453125 16.265625 -11.890625 L 16.265625 -4.640625 C 16.265625 -4.203125 16.222656 -3.785156 16.140625 -3.390625 C 16.066406 -3.003906 15.945312 -2.632812 15.78125 -2.28125 C 15.625 -1.9375 15.414062 -1.617188 15.15625 -1.328125 C 14.4375 -0.460938 13.539062 0.171875 12.46875 0.578125 C 11.445312 0.972656 10.40625 1.171875 9.34375 1.171875 C 7.90625 1.171875 6.664062 0.910156 5.625 0.390625 Z M 5.625 0.390625 "/></g></g></g><g fill="#0866fe" fill-opacity="1"><g transform="translate(59.221752, 20.74797)"><g><path d="M 4.8125 -0.109375 C 3.457031 -0.953125 2.410156 -2.078125 1.671875 -3.484375 C 0.941406 -4.890625 0.578125 -6.390625 0.578125 -7.984375 C 0.578125 -9.929688 1.019531 -11.632812 1.90625 -13.09375 C 2.789062 -14.550781 3.921875 -15.664062 5.296875 -16.4375 C 6.671875 -17.207031 8.082031 -17.59375 9.53125 -17.59375 C 11.3125 -17.59375 12.898438 -17.171875 14.296875 -16.328125 C 14.554688 -16.148438 14.8125 -15.960938 15.0625 -15.765625 C 15.3125 -15.578125 15.546875 -15.375 15.765625 -15.15625 C 15.992188 -14.945312 16.207031 -14.722656 16.40625 -14.484375 C 16.613281 -14.253906 16.800781 -14.007812 16.96875 -13.75 C 17.144531 -13.488281 17.3125 -13.21875 17.46875 -12.9375 C 18.195312 -11.550781 18.5625 -10.054688 18.5625 -8.453125 C 18.5625 -7.484375 18.445312 -6.570312 18.21875 -5.71875 C 18 -4.875 17.660156 -4.078125 17.203125 -3.328125 C 16.773438 -2.617188 16.269531 -1.984375 15.6875 -1.421875 C 15.101562 -0.859375 14.460938 -0.382812 13.765625 0 C 12.359375 0.78125 10.945312 1.171875 9.53125 1.171875 C 7.757812 1.171875 6.1875 0.742188 4.8125 -0.109375 Z M 12.03125 -2.15625 C 12.71875 -2.78125 13.242188 -3.632812 13.609375 -4.71875 C 13.972656 -5.84375 14.15625 -7.085938 14.15625 -8.453125 C 14.15625 -9.722656 13.96875 -10.878906 13.59375 -11.921875 C 13.5 -12.179688 13.394531 -12.421875 13.28125 -12.640625 C 13.175781 -12.867188 13.054688 -13.082031 12.921875 -13.28125 C 12.796875 -13.488281 12.65625 -13.675781 12.5 -13.84375 C 12.34375 -14.019531 12.175781 -14.175781 12 -14.3125 C 11.820312 -14.46875 11.640625 -14.597656 11.453125 -14.703125 C 11.273438 -14.804688 11.082031 -14.894531 10.875 -14.96875 C 10.664062 -15.039062 10.445312 -15.09375 10.21875 -15.125 C 10 -15.15625 9.757812 -15.171875 9.5 -15.171875 C 8.007812 -15.171875 6.890625 -14.546875 6.140625 -13.296875 C 5.742188 -12.617188 5.441406 -11.847656 5.234375 -10.984375 C 5.023438 -10.117188 4.921875 -9.144531 4.921875 -8.0625 C 4.921875 -7.425781 4.96875 -6.816406 5.0625 -6.234375 C 5.15625 -5.648438 5.289062 -5.09375 5.46875 -4.5625 C 5.8125 -3.550781 6.332031 -2.742188 7.03125 -2.140625 C 7.6875 -1.566406 8.507812 -1.28125 9.5 -1.28125 C 10.507812 -1.28125 11.351562 -1.570312 12.03125 -2.15625 Z M 12.03125 -2.15625 "/></g></g></g><g fill="#0866fe" fill-opacity="1"><g transform="translate(78.351551, 20.74797)"><g><path d="M 3.78125 0.28125 C 3.625 0.0625 3.546875 -0.195312 3.546875 -0.5 L 3.546875 -0.546875 C 3.546875 -0.546875 3.546875 -0.570312 3.546875 -0.625 C 3.546875 -0.675781 3.546875 -0.707031 3.546875 -0.71875 C 3.554688 -0.726562 3.5625 -0.757812 3.5625 -0.8125 C 3.5625 -0.863281 3.566406 -0.898438 3.578125 -0.921875 C 3.585938 -0.953125 3.597656 -0.988281 3.609375 -1.03125 C 3.617188 -1.070312 3.628906 -1.101562 3.640625 -1.125 C 3.660156 -1.15625 3.679688 -1.191406 3.703125 -1.234375 C 3.734375 -1.273438 3.757812 -1.304688 3.78125 -1.328125 C 3.8125 -1.359375 3.847656 -1.390625 3.890625 -1.421875 C 3.929688 -1.460938 3.972656 -1.492188 4.015625 -1.515625 C 4.203125 -1.628906 4.476562 -1.6875 4.84375 -1.6875 C 5.207031 -1.6875 5.453125 -1.734375 5.578125 -1.828125 C 5.640625 -1.878906 5.679688 -1.929688 5.703125 -1.984375 C 5.734375 -2.035156 5.757812 -2.085938 5.78125 -2.140625 C 5.800781 -2.203125 5.816406 -2.28125 5.828125 -2.375 C 5.847656 -2.476562 5.863281 -2.582031 5.875 -2.6875 C 5.882812 -2.800781 5.890625 -2.921875 5.890625 -3.046875 L 5.890625 -14.8125 L 4.734375 -14.8125 C 4.578125 -14.8125 4.429688 -14.796875 4.296875 -14.765625 C 4.160156 -14.742188 4.050781 -14.710938 3.96875 -14.671875 C 3.894531 -14.640625 3.820312 -14.597656 3.75 -14.546875 C 3.539062 -14.390625 3.375 -14.148438 3.25 -13.828125 C 3.21875 -13.722656 3.179688 -13.609375 3.140625 -13.484375 C 3.109375 -13.359375 3.078125 -13.21875 3.046875 -13.0625 C 3.015625 -12.90625 2.976562 -12.734375 2.9375 -12.546875 C 2.90625 -12.367188 2.878906 -12.1875 2.859375 -12 C 2.804688 -11.613281 2.570312 -11.328125 2.15625 -11.140625 C 1.882812 -11.015625 1.597656 -10.953125 1.296875 -10.953125 C 1.003906 -10.953125 0.738281 -11.039062 0.5 -11.21875 C 0.1875 -11.445312 0.03125 -11.75 0.03125 -12.125 L 0.109375 -15.796875 C 0.109375 -16.160156 0.210938 -16.457031 0.421875 -16.6875 C 0.660156 -16.945312 1.003906 -17.078125 1.453125 -17.078125 L 14.1875 -17.078125 C 14.375 -17.078125 14.550781 -17.050781 14.71875 -17 C 14.882812 -16.945312 15.035156 -16.851562 15.171875 -16.71875 C 15.296875 -16.59375 15.382812 -16.453125 15.4375 -16.296875 C 15.488281 -16.140625 15.515625 -15.972656 15.515625 -15.796875 L 15.625 -12.125 C 15.625 -11.9375 15.578125 -11.765625 15.484375 -11.609375 C 15.398438 -11.453125 15.28125 -11.320312 15.125 -11.21875 C 14.882812 -11.039062 14.613281 -10.953125 14.3125 -10.953125 C 14.15625 -10.953125 14.003906 -10.96875 13.859375 -11 C 13.710938 -11.039062 13.578125 -11.085938 13.453125 -11.140625 C 13.054688 -11.328125 12.832031 -11.601562 12.78125 -11.96875 C 12.65625 -12.800781 12.515625 -13.425781 12.359375 -13.84375 C 12.253906 -14.15625 12.097656 -14.390625 11.890625 -14.546875 C 11.785156 -14.617188 11.644531 -14.679688 11.46875 -14.734375 C 11.300781 -14.785156 11.101562 -14.8125 10.875 -14.8125 L 9.765625 -14.8125 L 9.765625 -3.046875 C 9.773438 -2.660156 9.804688 -2.359375 9.859375 -2.140625 C 9.878906 -2.085938 9.898438 -2.035156 9.921875 -1.984375 C 9.953125 -1.929688 10.003906 -1.878906 10.078125 -1.828125 C 10.191406 -1.734375 10.429688 -1.6875 10.796875 -1.6875 L 10.953125 -1.6875 C 11.023438 -1.6875 11.085938 -1.679688 11.140625 -1.671875 C 11.191406 -1.671875 11.25 -1.664062 11.3125 -1.65625 C 11.382812 -1.644531 11.453125 -1.617188 11.515625 -1.578125 C 11.578125 -1.546875 11.644531 -1.503906 11.71875 -1.453125 C 11.9375 -1.285156 12.066406 -0.984375 12.109375 -0.546875 L 12.109375 -0.5 C 12.109375 -0.195312 12.03125 0.0625 11.875 0.28125 C 11.800781 0.375 11.71875 0.453125 11.625 0.515625 C 11.53125 0.585938 11.425781 0.640625 11.3125 0.671875 C 11.195312 0.710938 11.085938 0.734375 10.984375 0.734375 L 10.953125 0.734375 C 10.398438 0.691406 9.867188 0.664062 9.359375 0.65625 C 8.859375 0.65625 8.375 0.65625 7.90625 0.65625 C 6.882812 0.65625 5.8125 0.679688 4.6875 0.734375 L 4.65625 0.734375 C 4.28125 0.734375 3.988281 0.582031 3.78125 0.28125 Z M 3.78125 0.28125 "/></g></g></g><g fill="#0866fe" fill-opacity="1"><g transform="translate(93.655396, 20.74797)"><g><path d="M 0.703125 0.28125 C 0.617188 0.164062 0.554688 0.046875 0.515625 -0.078125 C 0.484375 -0.210938 0.46875 -0.351562 0.46875 -0.5 L 0.46875 -0.546875 C 0.46875 -0.546875 0.46875 -0.5625 0.46875 -0.59375 C 0.5 -1.050781 0.65625 -1.359375 0.9375 -1.515625 C 1.125 -1.628906 1.398438 -1.6875 1.765625 -1.6875 C 2.128906 -1.6875 2.375 -1.734375 2.5 -1.828125 C 2.625 -1.910156 2.691406 -2.015625 2.703125 -2.140625 C 2.753906 -2.359375 2.789062 -2.660156 2.8125 -3.046875 L 2.8125 -13.375 C 2.789062 -13.757812 2.753906 -14.066406 2.703125 -14.296875 C 2.703125 -14.328125 2.691406 -14.359375 2.671875 -14.390625 C 2.660156 -14.429688 2.640625 -14.46875 2.609375 -14.5 C 2.585938 -14.53125 2.550781 -14.554688 2.5 -14.578125 C 2.375 -14.679688 2.128906 -14.734375 1.765625 -14.734375 L 1.609375 -14.734375 C 1.546875 -14.734375 1.488281 -14.738281 1.4375 -14.75 C 1.382812 -14.757812 1.316406 -14.765625 1.234375 -14.765625 C 1.160156 -14.773438 1.085938 -14.796875 1.015625 -14.828125 C 0.941406 -14.867188 0.878906 -14.925781 0.828125 -15 C 0.796875 -15.007812 0.757812 -15.03125 0.71875 -15.0625 C 0.6875 -15.101562 0.660156 -15.132812 0.640625 -15.15625 C 0.628906 -15.1875 0.613281 -15.21875 0.59375 -15.25 C 0.582031 -15.289062 0.570312 -15.320312 0.5625 -15.34375 C 0.550781 -15.375 0.539062 -15.410156 0.53125 -15.453125 C 0.519531 -15.492188 0.507812 -15.519531 0.5 -15.53125 C 0.5 -15.550781 0.5 -15.582031 0.5 -15.625 C 0.5 -15.675781 0.492188 -15.707031 0.484375 -15.71875 C 0.472656 -15.738281 0.46875 -15.765625 0.46875 -15.796875 C 0.46875 -15.835938 0.46875 -15.863281 0.46875 -15.875 L 0.46875 -15.9375 C 0.488281 -16.226562 0.566406 -16.488281 0.703125 -16.71875 C 0.785156 -16.851562 0.90625 -16.957031 1.0625 -17.03125 C 1.21875 -17.113281 1.382812 -17.15625 1.5625 -17.15625 L 1.59375 -17.15625 C 2.738281 -17.101562 3.757812 -17.078125 4.65625 -17.078125 L 12.828125 -17.078125 C 13.023438 -17.078125 13.203125 -17.050781 13.359375 -17 C 13.523438 -16.945312 13.679688 -16.851562 13.828125 -16.71875 C 14.046875 -16.488281 14.15625 -16.179688 14.15625 -15.796875 L 14.234375 -12.15625 C 14.234375 -11.757812 14.050781 -11.445312 13.6875 -11.21875 C 13.425781 -11.0625 13.160156 -10.984375 12.890625 -10.984375 C 12.835938 -10.984375 12.785156 -10.984375 12.734375 -10.984375 C 12.691406 -10.984375 12.644531 -10.988281 12.59375 -11 C 12.539062 -11.007812 12.492188 -11.015625 12.453125 -11.015625 C 12.410156 -11.023438 12.367188 -11.039062 12.328125 -11.0625 C 12.285156 -11.082031 12.238281 -11.097656 12.1875 -11.109375 C 12.132812 -11.128906 12.085938 -11.148438 12.046875 -11.171875 C 11.703125 -11.335938 11.492188 -11.613281 11.421875 -12 C 11.304688 -12.8125 11.171875 -13.421875 11.015625 -13.828125 C 10.890625 -14.140625 10.734375 -14.363281 10.546875 -14.5 C 10.316406 -14.632812 9.976562 -14.710938 9.53125 -14.734375 L 6.6875 -14.734375 L 6.6875 -9.421875 L 10.859375 -9.421875 C 11.171875 -9.367188 11.410156 -9.203125 11.578125 -8.921875 C 11.722656 -8.703125 11.796875 -8.453125 11.796875 -8.171875 C 11.796875 -8.097656 11.789062 -8.03125 11.78125 -7.96875 C 11.769531 -7.914062 11.753906 -7.859375 11.734375 -7.796875 C 11.722656 -7.734375 11.703125 -7.671875 11.671875 -7.609375 C 11.648438 -7.546875 11.617188 -7.488281 11.578125 -7.4375 C 11.492188 -7.300781 11.375 -7.191406 11.21875 -7.109375 C 11.0625 -7.035156 10.90625 -7 10.75 -7 L 6.6875 -7 L 6.6875 -2.765625 C 6.71875 -2.453125 6.753906 -2.195312 6.796875 -2 C 6.804688 -1.945312 6.875 -1.890625 7 -1.828125 C 7.132812 -1.722656 7.421875 -1.675781 7.859375 -1.6875 L 10.25 -1.6875 C 10.507812 -1.707031 10.726562 -1.734375 10.90625 -1.765625 C 11.082031 -1.804688 11.210938 -1.851562 11.296875 -1.90625 C 11.503906 -2.019531 11.671875 -2.207031 11.796875 -2.46875 C 11.859375 -2.625 11.945312 -2.851562 12.0625 -3.15625 C 12.175781 -3.46875 12.296875 -3.832031 12.421875 -4.25 L 12.421875 -4.265625 L 12.4375 -4.296875 C 12.5625 -4.609375 12.769531 -4.828125 13.0625 -4.953125 C 13.363281 -5.085938 13.6875 -5.128906 14.03125 -5.078125 L 14.0625 -5.078125 C 14.195312 -5.046875 14.320312 -5 14.4375 -4.9375 C 14.5625 -4.875 14.675781 -4.804688 14.78125 -4.734375 C 14.925781 -4.617188 15.035156 -4.472656 15.109375 -4.296875 C 15.191406 -4.117188 15.222656 -3.9375 15.203125 -3.75 L 15.203125 -3.71875 L 14.6875 -0.4375 L 14.6875 -0.421875 L 14.65625 -0.390625 C 14.625 -0.210938 14.570312 -0.0546875 14.5 0.078125 C 14.425781 0.210938 14.3125 0.332031 14.15625 0.4375 C 13.945312 0.582031 13.65625 0.65625 13.28125 0.65625 L 4.6875 0.65625 C 4.21875 0.65625 3.726562 0.65625 3.21875 0.65625 C 2.707031 0.664062 2.164062 0.691406 1.59375 0.734375 L 1.5625 0.734375 C 1.195312 0.734375 0.910156 0.582031 0.703125 0.28125 Z M 0.703125 0.28125 "/></g></g></g></svg>