<svg xmlns="http://www.w3.org/2000/svg" xmlns:xlink="http://www.w3.org/1999/xlink" width="500" zoomAndPan="magnify" viewBox="0 0 375 374.999991" height="500" preserveAspectRatio="xMidYMid meet" version="1.0"><path fill="#0096ff" d="M 195.574219 49.777344 L 213.613281 67.710938 C 216.511719 70.59375 220.726562 71.722656 224.679688 70.671875 L 249.273438 64.160156 C 255.394531 62.535156 261.675781 66.167969 263.332031 72.273438 L 269.984375 96.824219 C 271.054688 100.769531 274.136719 103.851562 278.082031 104.921875 L 302.632812 111.574219 C 308.746094 113.230469 312.375 119.511719 310.75 125.632812 L 304.234375 150.226562 C 303.1875 154.179688 304.316406 158.386719 307.195312 161.292969 L 325.128906 179.332031 C 329.59375 183.820312 329.59375 191.070312 325.128906 195.566406 L 307.195312 213.605469 C 304.316406 216.503906 303.1875 220.71875 304.234375 224.671875 L 310.75 249.265625 C 312.375 255.386719 308.738281 261.667969 302.632812 263.324219 L 278.082031 269.976562 C 274.136719 271.046875 271.054688 274.128906 269.984375 278.074219 L 263.332031 302.625 C 261.675781 308.738281 255.394531 312.363281 249.273438 310.742188 L 224.679688 304.226562 C 220.726562 303.179688 216.519531 304.304688 213.613281 307.1875 L 195.574219 325.121094 C 191.085938 329.585938 183.835938 329.585938 179.339844 325.121094 L 161.300781 307.1875 C 158.402344 304.304688 154.1875 303.179688 150.234375 304.226562 L 125.640625 310.742188 C 119.519531 312.363281 113.238281 308.730469 111.582031 302.625 L 104.929688 278.074219 C 103.859375 274.128906 100.777344 271.046875 96.832031 269.976562 L 72.28125 263.324219 C 66.167969 261.667969 62.542969 255.386719 64.167969 249.265625 L 70.679688 224.671875 C 71.730469 220.71875 70.601562 216.511719 67.71875 213.605469 L 49.785156 195.566406 C 45.320312 191.078125 45.320312 183.828125 49.785156 179.332031 L 67.71875 161.292969 C 70.601562 158.394531 71.730469 154.179688 70.679688 150.226562 L 64.167969 125.632812 C 62.542969 119.511719 66.175781 113.230469 72.28125 111.574219 L 96.832031 104.921875 C 100.777344 103.851562 103.859375 100.769531 104.929688 96.824219 L 111.582031 72.273438 C 113.238281 66.160156 119.519531 62.535156 125.640625 64.160156 L 150.234375 70.671875 C 154.1875 71.722656 158.394531 70.59375 161.300781 67.710938 L 179.339844 49.777344 C 183.828125 45.3125 191.078125 45.3125 195.574219 49.777344 Z M 195.574219 49.777344 " fill-opacity="1" fill-rule="nonzero"/><path fill="#ffffff" d="M 160.566406 242.359375 C 157.789062 242.359375 155.011719 241.300781 152.898438 239.183594 L 118.574219 204.859375 C 114.34375 200.625 114.34375 193.757812 118.574219 189.519531 C 122.808594 185.277344 129.675781 185.285156 133.910156 189.519531 L 160.566406 216.175781 L 241.007812 135.734375 C 245.238281 131.5 252.105469 131.5 256.347656 135.734375 C 260.582031 139.964844 260.582031 146.832031 256.347656 151.074219 L 168.238281 239.183594 C 166.117188 241.300781 163.351562 242.359375 160.574219 242.359375 Z M 160.566406 242.359375 " fill-opacity="1" fill-rule="nonzero"/><path fill="#0096ff" d="M 195.574219 49.777344 L 213.613281 67.710938 C 216.511719 70.59375 220.726562 71.722656 224.679688 70.671875 L 249.273438 64.160156 C 255.394531 62.535156 261.675781 66.167969 263.332031 72.273438 L 269.984375 96.824219 C 271.054688 100.769531 274.136719 103.851562 278.082031 104.921875 L 302.632812 111.574219 C 308.746094 113.230469 312.375 119.511719 310.75 125.632812 L 304.234375 150.226562 C 303.1875 154.179688 304.316406 158.386719 307.195312 161.292969 L 325.128906 179.332031 C 329.59375 183.820312 329.59375 191.070312 325.128906 195.566406 L 307.195312 213.605469 C 304.316406 216.503906 303.1875 220.71875 304.234375 224.671875 L 310.75 249.265625 C 312.375 255.386719 308.738281 261.667969 302.632812 263.324219 L 278.082031 269.976562 C 274.136719 271.046875 271.054688 274.128906 269.984375 278.074219 L 263.332031 302.625 C 261.675781 308.738281 255.394531 312.363281 249.273438 310.742188 L 224.679688 304.226562 C 220.726562 303.179688 216.519531 304.304688 213.613281 307.1875 L 195.574219 325.121094 C 191.085938 329.585938 183.835938 329.585938 179.339844 325.121094 L 161.300781 307.1875 C 158.402344 304.304688 154.1875 303.179688 150.234375 304.226562 L 125.640625 310.742188 C 119.519531 312.363281 113.238281 308.730469 111.582031 302.625 L 104.929688 278.074219 C 103.859375 274.128906 100.777344 271.046875 96.832031 269.976562 L 72.28125 263.324219 C 66.167969 261.667969 62.542969 255.386719 64.167969 249.265625 L 70.679688 224.671875 C 71.730469 220.71875 70.601562 216.511719 67.71875 213.605469 L 49.785156 195.566406 C 45.320312 191.078125 45.320312 183.828125 49.785156 179.332031 L 67.71875 161.292969 C 70.601562 158.394531 71.730469 154.179688 70.679688 150.226562 L 64.167969 125.632812 C 62.542969 119.511719 66.175781 113.230469 72.28125 111.574219 L 96.832031 104.921875 C 100.777344 103.851562 103.859375 100.769531 104.929688 96.824219 L 111.582031 72.273438 C 113.238281 66.160156 119.519531 62.535156 125.640625 64.160156 L 150.234375 70.671875 C 154.1875 71.722656 158.394531 70.59375 161.300781 67.710938 L 179.339844 49.777344 C 183.828125 45.3125 191.078125 45.3125 195.574219 49.777344 Z M 195.574219 49.777344 " fill-opacity="1" fill-rule="nonzero"/><path fill="#ffffff" d="M 160.566406 242.359375 C 157.789062 242.359375 155.011719 241.300781 152.898438 239.183594 L 118.574219 204.859375 C 114.34375 200.625 114.34375 193.757812 118.574219 189.519531 C 122.808594 185.277344 129.675781 185.285156 133.910156 189.519531 L 160.566406 216.175781 L 241.007812 135.734375 C 245.238281 131.5 252.105469 131.5 256.347656 135.734375 C 260.582031 139.964844 260.582031 146.832031 256.347656 151.074219 L 168.238281 239.183594 C 166.117188 241.300781 163.351562 242.359375 160.574219 242.359375 Z M 160.566406 242.359375 " fill-opacity="1" fill-rule="nonzero"/></svg>